<svg width="133" height="449" viewBox="0 0 133 449" fill="none" xmlns="http://www.w3.org/2000/svg">
<rect width="133" height="449" fill="white"/>
<path d="M60.7266 232.09L72 232.09L72 228.762C72 227.059 71.1602 225.871 69.4805 225.199C68.5586 224.832 67.4609 224.648 66.1875 224.648C64.4297 224.648 63.082 224.926 62.1445 225.48C61.1992 226.027 60.7266 227.121 60.7266 228.762L60.7266 232.09ZM57.7266 228.152C57.7422 227.082 57.8672 226.191 58.1016 225.48C58.5 224.27 59.2305 223.289 60.293 222.539C61.1523 221.938 62.082 221.527 63.082 221.309C64.082 221.09 65.0352 220.98 65.9414 220.98C68.2383 220.98 70.1836 221.441 71.7773 222.363C73.9258 223.613 75 225.543 75 228.152L75 235.594L57.7266 235.594L57.7266 228.152ZM72.6445 212.789C72.6445 211.813 72.2969 211.063 71.6016 210.539C70.9063 210.016 69.918 209.754 68.6367 209.754C67.3555 209.754 66.3711 210.016 65.6836 210.539C64.9883 211.063 64.6406 211.813 64.6406 212.789C64.6406 213.766 64.9883 214.52 65.6836 215.051C66.3711 215.574 67.3555 215.836 68.6367 215.836C69.918 215.836 70.9063 215.574 71.6016 215.051C72.2969 214.52 72.6445 213.766 72.6445 212.789ZM68.6367 206.25C70.5117 206.25 72.1172 206.789 73.4531 207.867C74.7813 208.945 75.4453 210.582 75.4453 212.777C75.4453 214.973 74.7813 216.609 73.4531 217.688C72.1172 218.766 70.5117 219.305 68.6367 219.305C66.793 219.305 65.1953 218.766 63.8438 217.688C62.4922 216.609 61.8164 214.973 61.8164 212.777C61.8164 210.582 62.4922 208.945 63.8438 207.867C65.1953 206.789 66.793 206.25 68.6367 206.25ZM57 208.781L60.5039 212.344L60.5039 214.758L57 212.508L57 208.781ZM61.9219 196.77C61.9219 195.449 62.2695 194.371 62.9648 193.535C63.6523 192.691 64.7969 192.27 66.3984 192.27L75 192.27L75 195.691L67.2305 195.691C66.5586 195.691 66.043 195.781 65.6836 195.961C65.0273 196.289 64.6992 196.914 64.6992 197.836C64.6992 198.969 65.1797 199.746 66.1406 200.168C66.6484 200.387 67.2969 200.496 68.0859 200.496L75 200.496L75 203.824L62.25 203.824L62.25 200.602L64.1133 200.602C63.457 200.172 62.9844 199.766 62.6953 199.383C62.1797 198.695 61.9219 197.824 61.9219 196.77ZM61.9219 184.465C61.9219 183.691 62.0938 183.004 62.4375 182.402C62.7734 181.801 63.2422 181.313 63.8438 180.938L57.75 180.938L57.75 177.551L75 177.551L75 180.797L73.2305 180.797C73.9883 181.273 74.5391 181.816 74.8828 182.426C75.2266 183.035 75.3984 183.793 75.3984 184.699C75.3984 186.191 74.7969 187.449 73.5938 188.473C72.3828 189.488 70.832 189.996 68.9414 189.996C66.7617 189.996 65.0469 189.496 63.7969 188.496C62.5469 187.488 61.9219 186.145 61.9219 184.465ZM72.5859 183.738C72.5859 182.793 72.2344 182.074 71.5313 181.582C70.8281 181.09 69.918 180.844 68.8008 180.844C67.2383 180.844 66.1211 181.238 65.4492 182.027C65.043 182.512 64.8398 183.074 64.8398 183.715C64.8398 184.691 65.2109 185.41 65.9531 185.871C66.6875 186.324 67.6016 186.551 68.6953 186.551C69.875 186.551 70.8203 186.32 71.5313 185.859C72.2344 185.391 72.5859 184.684 72.5859 183.738ZM64.6406 169.465C64.6406 170.238 64.8828 170.84 65.3672 171.27C65.8516 171.691 66.5078 171.957 67.3359 172.066L67.3359 166.875C66.4531 166.93 65.7852 167.199 65.332 167.684C64.8711 168.16 64.6406 168.754 64.6406 169.465ZM61.8867 169.465C61.8867 168.402 62.0859 167.445 62.4844 166.594C62.8828 165.742 63.5117 165.039 64.3711 164.484C65.1289 163.984 66.0078 163.66 67.0078 163.512C67.5938 163.426 68.4375 163.391 69.5391 163.406L69.5391 172.148C70.8203 172.102 71.7188 171.699 72.2344 170.941C72.5547 170.48 72.7148 169.926 72.7148 169.277C72.7148 168.59 72.5195 168.031 72.1289 167.602C71.918 167.367 71.625 167.16 71.25 166.98L71.25 163.57C72.0078 163.656 72.7773 164.051 73.5586 164.754C74.8008 165.848 75.4219 167.379 75.4219 169.348C75.4219 170.973 74.8984 172.406 73.8516 173.648C72.8047 174.891 71.1016 175.512 68.7422 175.512C66.5313 175.512 64.8359 174.953 63.6563 173.836C62.4766 172.711 61.8867 171.254 61.8867 169.465ZM64.6406 149.426C64.6406 150.199 64.8828 150.801 65.3672 151.23C65.8516 151.652 66.5078 151.918 67.3359 152.027L67.3359 146.836C66.4531 146.891 65.7852 147.16 65.332 147.645C64.8711 148.121 64.6406 148.715 64.6406 149.426ZM61.8867 149.426C61.8867 148.363 62.0859 147.406 62.4844 146.555C62.8828 145.703 63.5117 145 64.3711 144.445C65.1289 143.945 66.0078 143.621 67.0078 143.473C67.5938 143.387 68.4375 143.352 69.5391 143.367L69.5391 152.109C70.8203 152.063 71.7188 151.66 72.2344 150.902C72.5547 150.441 72.7148 149.887 72.7148 149.238C72.7148 148.551 72.5195 147.992 72.1289 147.563C71.918 147.328 71.625 147.121 71.25 146.941L71.25 143.531C72.0078 143.617 72.7773 144.012 73.5586 144.715C74.8008 145.809 75.4219 147.34 75.4219 149.309C75.4219 150.934 74.8984 152.367 73.8516 153.609C72.8047 154.852 71.1016 155.473 68.7422 155.473C66.5313 155.473 64.8359 154.914 63.6563 153.797C62.4766 152.672 61.8867 151.215 61.8867 149.426ZM70.9219 138.504C71.5156 138.434 71.9375 138.281 72.1875 138.047C72.6328 137.633 72.8555 136.867 72.8555 135.75C72.8555 135.094 72.7578 134.574 72.5625 134.191C72.3672 133.801 72.0742 133.605 71.6836 133.605C71.3086 133.605 71.0234 133.762 70.8281 134.074C70.6328 134.387 70.2969 135.547 69.8203 137.555C69.4609 139 69.0117 140.02 68.4727 140.613C67.9414 141.207 67.1758 141.504 66.1758 141.504C64.9961 141.504 63.9844 141.043 63.1406 140.121C62.2891 139.191 61.8633 137.887 61.8633 136.207C61.8633 134.613 62.1836 133.316 62.8242 132.316C63.457 131.309 64.5547 130.73 66.1172 130.582L66.1172 133.922C65.6875 133.969 65.3477 134.09 65.0977 134.285C64.6445 134.652 64.418 135.277 64.418 136.16C64.418 136.887 64.5313 137.406 64.7578 137.719C64.9844 138.023 65.25 138.176 65.5547 138.176C65.9375 138.176 66.2148 138.012 66.3867 137.684C66.5664 137.355 66.875 136.195 67.3125 134.203C67.625 132.875 68.0977 131.879 68.7305 131.215C69.3711 130.559 70.1719 130.23 71.1328 130.23C72.3984 130.23 73.4336 130.703 74.2383 131.648C75.0352 132.586 75.4336 134.039 75.4336 136.008C75.4336 138.016 75.0117 139.5 74.168 140.461C73.3164 141.414 72.2344 141.891 70.9219 141.891L70.9219 138.504ZM64.7227 129.059L62.3438 129.059L62.3438 127.277L58.7813 127.277L58.7813 123.973L62.3438 123.973L62.3438 121.898L64.7227 121.898L64.7227 123.973L71.4727 123.973C71.9961 123.973 72.3242 123.906 72.457 123.773C72.582 123.641 72.6445 123.234 72.6445 122.555C72.6445 122.453 72.6445 122.348 72.6445 122.238C72.6367 122.121 72.6289 122.008 72.6211 121.898L75.1172 121.898L75.1758 123.48C75.2305 125.059 74.957 126.137 74.3555 126.715C73.9727 127.09 73.3828 127.277 72.5859 127.277L64.7227 127.277L64.7227 129.059ZM72.6445 114.023C72.6445 113.047 72.2969 112.297 71.6016 111.773C70.9063 111.25 69.918 110.988 68.6367 110.988C67.3555 110.988 66.3711 111.25 65.6836 111.773C64.9883 112.297 64.6406 113.047 64.6406 114.023C64.6406 115 64.9883 115.754 65.6836 116.285C66.3711 116.809 67.3555 117.07 68.6367 117.07C69.918 117.07 70.9063 116.809 71.6016 116.285C72.2969 115.754 72.6445 115 72.6445 114.023ZM68.6367 107.484C70.5117 107.484 72.1172 108.023 73.4531 109.102C74.7813 110.18 75.4453 111.816 75.4453 114.012C75.4453 116.207 74.7813 117.844 73.4531 118.922C72.1172 120 70.5117 120.539 68.6367 120.539C66.793 120.539 65.1953 120 63.8438 118.922C62.4922 117.844 61.8164 116.207 61.8164 114.012C61.8164 111.816 62.4922 110.18 63.8438 109.102C65.1953 108.023 66.793 107.484 68.6367 107.484ZM77.4492 104.566L77.4727 104.145C77.4883 103.816 77.4766 103.504 77.4375 103.207C77.3984 102.91 77.3086 102.66 77.168 102.457C77.0352 102.262 76.7578 102.082 76.3359 101.918C75.9141 101.746 75.6563 101.676 75.5625 101.707L62.2266 106.395L62.2266 102.68L71.6484 99.8906L62.2266 97.2539L62.2266 93.7031L74.7891 98.0859C77.2109 98.9297 78.7109 99.5977 79.2891 100.09C79.875 100.582 80.168 101.566 80.168 103.043C80.168 103.34 80.1641 103.578 80.1563 103.758C80.1563 103.938 80.1445 104.207 80.1211 104.566L77.4492 104.566ZM61.8984 78C61.8984 77.2109 62.0352 76.4961 62.3086 75.8555C62.582 75.207 63 74.6758 63.5625 74.2617C64.0391 73.9102 64.5313 73.6953 65.0391 73.6172C65.5391 73.5391 66.3594 73.5 67.5 73.5L75 73.5L75 76.9102L67.2305 76.9102C66.543 76.9102 65.9883 77.0273 65.5664 77.2617C64.9727 77.5664 64.6758 78.1445 64.6758 78.9961C64.6758 79.8789 64.9727 80.5508 65.5664 81.0117C66.1523 81.4648 66.9922 81.6914 68.0859 81.6914L75 81.6914L75 85.0195L57.7852 85.0195L57.7852 81.6914L63.8906 81.6914C63.1484 81.207 62.6328 80.6484 62.3438 80.0156C62.0469 79.375 61.8984 78.7031 61.8984 78ZM72.6445 64.6406C72.6445 63.6641 72.2969 62.9141 71.6016 62.3906C70.9063 61.8672 69.918 61.6055 68.6367 61.6055C67.3555 61.6055 66.3711 61.8672 65.6836 62.3906C64.9883 62.9141 64.6406 63.6641 64.6406 64.6406C64.6406 65.6172 64.9883 66.3711 65.6836 66.9023C66.3711 67.4258 67.3555 67.6875 68.6367 67.6875C69.918 67.6875 70.9063 67.4258 71.6016 66.9023C72.2969 66.3711 72.6445 65.6172 72.6445 64.6406ZM68.6367 58.1016C70.5117 58.1016 72.1172 58.6406 73.4531 59.7188C74.7813 60.7969 75.4453 62.4336 75.4453 64.6289C75.4453 66.8242 74.7813 68.4609 73.4531 69.5391C72.1172 70.6172 70.5117 71.1563 68.6367 71.1563C66.793 71.1563 65.1953 70.6172 63.8438 69.5391C62.4922 68.4609 61.8164 66.8242 61.8164 64.6289C61.8164 62.4336 62.4922 60.7969 63.8438 59.7188C65.1953 58.6406 66.793 58.1016 68.6367 58.1016ZM77.4492 55.1836L77.4727 54.7617C77.4883 54.4336 77.4766 54.1211 77.4375 53.8242C77.3984 53.5273 77.3086 53.2773 77.168 53.0742C77.0352 52.8789 76.7578 52.6992 76.3359 52.5352C75.9141 52.3633 75.6563 52.293 75.5625 52.3242L62.2266 57.0117L62.2266 53.2969L71.6484 50.5078L62.2266 47.8711L62.2266 44.3203L74.7891 48.7031C77.2109 49.5469 78.7109 50.2148 79.2891 50.707C79.875 51.1992 80.168 52.1836 80.168 53.6602C80.168 53.957 80.1641 54.1953 80.1563 54.375C80.1563 54.5547 80.1445 54.8242 80.1211 55.1836L77.4492 55.1836ZM71.5078 44.1797L71.5078 40.6289L75 40.6289L75 44.1797L71.5078 44.1797Z" fill="black"/>
<path d="M65.9393 298.119C66.5251 298.705 67.4749 298.705 68.0607 298.119L77.6066 288.574C78.1924 287.988 78.1924 287.038 77.6066 286.452C77.0208 285.866 76.0711 285.866 75.4853 286.452L67 294.938L58.5147 286.452C57.9289 285.866 56.9792 285.866 56.3934 286.452C55.8076 287.038 55.8076 287.988 56.3934 288.574L65.9393 298.119ZM65.5 277L65.5 297.059L68.5 297.059L68.5 277L65.5 277Z" fill="black"/>
<circle cx="67" cy="288" r="21" transform="rotate(-180 67 288)" stroke="black" stroke-width="2"/>
</svg>
