<svg width="133" height="449" viewBox="0 0 133 449" fill="none" xmlns="http://www.w3.org/2000/svg">
<rect width="133" height="449" fill="white"/>
<path d="M60.7852 203.227L60.7852 212.367L64.4531 212.367L64.4531 203.977L67.4531 203.977L67.4531 212.367L71.8945 212.367L71.8945 202.805L75 202.805L75 215.895L57.7266 215.895L57.7266 203.227L60.7852 203.227ZM70.9219 197.66C71.5156 197.59 71.9375 197.438 72.1875 197.203C72.6328 196.789 72.8555 196.023 72.8555 194.906C72.8555 194.25 72.7578 193.73 72.5625 193.348C72.3672 192.957 72.0742 192.762 71.6836 192.762C71.3086 192.762 71.0234 192.918 70.8281 193.23C70.6328 193.543 70.2969 194.703 69.8203 196.711C69.4609 198.156 69.0117 199.176 68.4727 199.77C67.9414 200.363 67.1758 200.66 66.1758 200.66C64.9961 200.66 63.9844 200.199 63.1406 199.277C62.2891 198.348 61.8633 197.043 61.8633 195.363C61.8633 193.77 62.1836 192.473 62.8242 191.473C63.457 190.465 64.5547 189.887 66.1172 189.738L66.1172 193.078C65.6875 193.125 65.3477 193.246 65.0977 193.441C64.6445 193.809 64.418 194.434 64.418 195.316C64.418 196.043 64.5313 196.563 64.7578 196.875C64.9844 197.18 65.25 197.332 65.5547 197.332C65.9375 197.332 66.2148 197.168 66.3867 196.84C66.5664 196.512 66.875 195.352 67.3125 193.359C67.625 192.031 68.0977 191.035 68.7305 190.371C69.3711 189.715 70.1719 189.387 71.1328 189.387C72.3984 189.387 73.4336 189.859 74.2383 190.805C75.0352 191.742 75.4336 193.195 75.4336 195.164C75.4336 197.172 75.0117 198.656 74.168 199.617C73.3164 200.57 72.2344 201.047 70.9219 201.047L70.9219 197.66ZM64.7227 188.215L62.3438 188.215L62.3438 186.434L58.7813 186.434L58.7813 183.129L62.3438 183.129L62.3438 181.055L64.7227 181.055L64.7227 183.129L71.4727 183.129C71.9961 183.129 72.3242 183.063 72.457 182.93C72.582 182.797 72.6445 182.391 72.6445 181.711C72.6445 181.609 72.6445 181.504 72.6445 181.395C72.6367 181.277 72.6289 181.164 72.6211 181.055L75.1172 181.055L75.1758 182.637C75.2305 184.215 74.957 185.293 74.3555 185.871C73.9727 186.246 73.3828 186.434 72.5859 186.434L64.7227 186.434L64.7227 188.215ZM72.6445 173.18C72.6445 172.203 72.2969 171.453 71.6016 170.93C70.9063 170.406 69.918 170.145 68.6367 170.145C67.3555 170.145 66.3711 170.406 65.6836 170.93C64.9883 171.453 64.6406 172.203 64.6406 173.18C64.6406 174.156 64.9883 174.91 65.6836 175.441C66.3711 175.965 67.3555 176.227 68.6367 176.227C69.918 176.227 70.9063 175.965 71.6016 175.441C72.2969 174.91 72.6445 174.156 72.6445 173.18ZM68.6367 166.641C70.5117 166.641 72.1172 167.18 73.4531 168.258C74.7813 169.336 75.4453 170.973 75.4453 173.168C75.4453 175.363 74.7813 177 73.4531 178.078C72.1172 179.156 70.5117 179.695 68.6367 179.695C66.793 179.695 65.1953 179.156 63.8438 178.078C62.4922 177 61.8164 175.363 61.8164 173.168C61.8164 170.973 62.4922 169.336 63.8438 168.258C65.1953 167.18 66.793 166.641 68.6367 166.641ZM64.7227 158.871L62.3438 158.871L62.3438 157.09L58.7813 157.09L58.7813 153.785L62.3438 153.785L62.3438 151.711L64.7227 151.711L64.7227 153.785L71.4727 153.785C71.9961 153.785 72.3242 153.719 72.457 153.586C72.582 153.453 72.6445 153.047 72.6445 152.367C72.6445 152.266 72.6445 152.16 72.6445 152.051C72.6367 151.934 72.6289 151.82 72.6211 151.711L75.1172 151.711L75.1758 153.293C75.2305 154.871 74.957 155.949 74.3555 156.527C73.9727 156.902 73.3828 157.09 72.5859 157.09L64.7227 157.09L64.7227 158.871ZM64.6406 144.527C64.6406 145.301 64.8828 145.902 65.3672 146.332C65.8516 146.754 66.5078 147.02 67.3359 147.129L67.3359 141.938C66.4531 141.992 65.7852 142.262 65.332 142.746C64.8711 143.223 64.6406 143.816 64.6406 144.527ZM61.8867 144.527C61.8867 143.465 62.0859 142.508 62.4844 141.656C62.8828 140.805 63.5117 140.102 64.3711 139.547C65.1289 139.047 66.0078 138.723 67.0078 138.574C67.5938 138.488 68.4375 138.453 69.5391 138.469L69.5391 147.211C70.8203 147.164 71.7188 146.762 72.2344 146.004C72.5547 145.543 72.7148 144.988 72.7148 144.34C72.7148 143.652 72.5195 143.094 72.1289 142.664C71.918 142.43 71.625 142.223 71.25 142.043L71.25 138.633C72.0078 138.719 72.7773 139.113 73.5586 139.816C74.8008 140.91 75.4219 142.441 75.4219 144.41C75.4219 146.035 74.8984 147.469 73.8516 148.711C72.8047 149.953 71.1016 150.574 68.7422 150.574C66.5313 150.574 64.8359 150.016 63.6563 148.898C62.4766 147.773 61.8867 146.316 61.8867 144.527ZM72.6445 123.797C72.6445 122.82 72.2969 122.07 71.6016 121.547C70.9063 121.023 69.918 120.762 68.6367 120.762C67.3555 120.762 66.3711 121.023 65.6836 121.547C64.9883 122.07 64.6406 122.82 64.6406 123.797C64.6406 124.773 64.9883 125.527 65.6836 126.059C66.3711 126.582 67.3555 126.844 68.6367 126.844C69.918 126.844 70.9063 126.582 71.6016 126.059C72.2969 125.527 72.6445 124.773 72.6445 123.797ZM68.6367 117.258C70.5117 117.258 72.1172 117.797 73.4531 118.875C74.7813 119.953 75.4453 121.59 75.4453 123.785C75.4453 125.98 74.7813 127.617 73.4531 128.695C72.1172 129.773 70.5117 130.313 68.6367 130.313C66.793 130.313 65.1953 129.773 63.8438 128.695C62.4922 127.617 61.8164 125.98 61.8164 123.785C61.8164 121.59 62.4922 119.953 63.8438 118.875C65.1953 117.797 66.793 117.258 68.6367 117.258ZM57.5508 110.145C57.5508 109.934 57.5586 109.742 57.5742 109.57C57.582 109.398 57.5977 109.164 57.6211 108.867L60.3398 108.867C60.3164 109.055 60.3008 109.371 60.293 109.816C60.2773 110.254 60.375 110.559 60.5859 110.73C60.7891 110.895 61.0156 110.977 61.2656 110.977C61.5156 110.977 61.875 110.977 62.3438 110.977L62.3438 108.785L64.6992 108.785L64.6992 110.977L75 110.977L75 114.305L64.6992 114.305L64.6992 116.168L62.3438 116.168L62.3438 114.34L61.5234 114.34C60.1563 114.34 59.2148 114.109 58.6992 113.648C57.9336 113.164 57.5508 111.996 57.5508 110.145ZM61.9219 99.9258C61.9219 99.8633 61.9258 99.8125 61.9336 99.7734C61.9336 99.7266 61.9375 99.6289 61.9453 99.4805L65.3672 99.4805C65.3438 99.6914 65.3281 99.8789 65.3203 100.043C65.3125 100.207 65.3086 100.34 65.3086 100.441C65.3086 101.785 65.7461 102.688 66.6211 103.148C67.1133 103.406 67.8711 103.535 68.8945 103.535L75 103.535L75 106.898L62.2266 106.898L62.2266 103.711L64.4531 103.711C63.6016 103.195 63.0195 102.746 62.707 102.363C62.1836 101.738 61.9219 100.926 61.9219 99.9258ZM64.6406 92.4727C64.6406 93.2461 64.8828 93.8477 65.3672 94.2773C65.8516 94.6992 66.5078 94.9648 67.3359 95.0742L67.3359 89.8828C66.4531 89.9375 65.7852 90.207 65.332 90.6914C64.8711 91.168 64.6406 91.7617 64.6406 92.4727ZM61.8867 92.4727C61.8867 91.4102 62.0859 90.4531 62.4844 89.6016C62.8828 88.75 63.5117 88.0469 64.3711 87.4922C65.1289 86.9922 66.0078 86.668 67.0078 86.5195C67.5938 86.4336 68.4375 86.3984 69.5391 86.4141L69.5391 95.1563C70.8203 95.1094 71.7188 94.707 72.2344 93.9492C72.5547 93.4883 72.7148 92.9336 72.7148 92.2852C72.7148 91.5977 72.5195 91.0391 72.1289 90.6094C71.918 90.375 71.625 90.168 71.25 89.9883L71.25 86.5781C72.0078 86.6641 72.7773 87.0586 73.5586 87.7617C74.8008 88.8555 75.4219 90.3867 75.4219 92.3555C75.4219 93.9805 74.8984 95.4141 73.8516 96.6563C72.8047 97.8984 71.1016 98.5195 68.7422 98.5195C66.5313 98.5195 64.8359 97.9609 63.6563 96.8438C62.4766 95.7188 61.8867 94.2617 61.8867 92.4727ZM64.9453 84.8789L62.2266 84.8789L62.2266 74.5195L65.0039 74.5195L72.2578 81L72.2578 74.2969L75 74.2969L75 85.3242L72.3984 85.3242L64.9453 78.7734L64.9453 84.8789ZM66.8086 64.5234C66.332 64.5859 65.9023 64.7461 65.5195 65.0039C65.0039 65.3789 64.7461 65.9609 64.7461 66.75C64.7461 67.875 65.3047 68.6445 66.4219 69.0586C67.0156 69.2773 67.8047 69.3867 68.7891 69.3867C69.7266 69.3867 70.4805 69.2773 71.0508 69.0586C72.1133 68.6602 72.6445 67.9102 72.6445 66.8086C72.6445 66.0273 72.4336 65.4727 72.0117 65.1445C71.5898 64.8164 71.043 64.6172 70.3711 64.5469L70.3711 61.1367C71.3867 61.2148 72.3477 61.582 73.2539 62.2383C74.7148 63.2852 75.4453 64.8359 75.4453 66.8906C75.4453 68.9453 74.8359 70.457 73.6172 71.4258C72.3984 72.3945 70.8164 72.8789 68.8711 72.8789C66.6758 72.8789 64.9688 72.3438 63.75 71.2734C62.5313 70.2031 61.9219 68.7266 61.9219 66.8438C61.9219 65.2422 62.2813 63.9336 63 62.918C63.7188 61.8945 64.9883 61.2891 66.8086 61.1016L66.8086 64.5234ZM72.6445 53.0625C72.6445 52.0859 72.2969 51.3359 71.6016 50.8125C70.9063 50.2891 69.918 50.0273 68.6367 50.0273C67.3555 50.0273 66.3711 50.2891 65.6836 50.8125C64.9883 51.3359 64.6406 52.0859 64.6406 53.0625C64.6406 54.0391 64.9883 54.793 65.6836 55.3242C66.3711 55.8477 67.3555 56.1094 68.6367 56.1094C69.918 56.1094 70.9063 55.8477 71.6016 55.3242C72.2969 54.793 72.6445 54.0391 72.6445 53.0625ZM68.6367 46.5234C70.5117 46.5234 72.1172 47.0625 73.4531 48.1406C74.7813 49.2188 75.4453 50.8555 75.4453 53.0508C75.4453 55.2461 74.7813 56.8828 73.4531 57.9609C72.1172 59.0391 70.5117 59.5781 68.6367 59.5781C66.793 59.5781 65.1953 59.0391 63.8438 57.9609C62.4922 56.8828 61.8164 55.2461 61.8164 53.0508C61.8164 50.8555 62.4922 49.2188 63.8438 48.1406C65.1953 47.0625 66.793 46.5234 68.6367 46.5234ZM71.5078 44.1797L71.5078 40.6289L75 40.6289L75 44.1797L71.5078 44.1797Z" fill="black"/>
<path d="M65.9393 278.119C66.5251 278.705 67.4749 278.705 68.0607 278.119L77.6066 268.574C78.1924 267.988 78.1924 267.038 77.6066 266.452C77.0208 265.866 76.0711 265.866 75.4853 266.452L67 274.938L58.5147 266.452C57.9289 265.866 56.9792 265.866 56.3934 266.452C55.8076 267.038 55.8076 267.988 56.3934 268.574L65.9393 278.119ZM65.5 257L65.5 277.059L68.5 277.059L68.5 257L65.5 257Z" fill="black"/>
<circle cx="67" cy="268" r="21" transform="rotate(-180 67 268)" stroke="black" stroke-width="2"/>
</svg>
