<svg width="133" height="449" viewBox="0 0 133 449" fill="none" xmlns="http://www.w3.org/2000/svg">
<rect width="133" height="449" fill="white"/>
<path d="M66.5039 268.828C63.4883 268.828 61.1641 268.02 59.5313 266.402C58.1094 264.996 57.3984 263.207 57.3984 261.035C57.3984 258.129 58.3516 256.004 60.2578 254.66C61.3281 253.918 62.4023 253.52 63.4805 253.465L63.4805 257.074C62.6523 257.309 62.0273 257.609 61.6055 257.977C60.8555 258.633 60.4805 259.605 60.4805 260.895C60.4805 262.207 61.0117 263.242 62.0742 264C63.1289 264.758 64.625 265.137 66.5625 265.137C68.5 265.137 69.9531 264.738 70.9219 263.941C71.8828 263.137 72.3633 262.117 72.3633 260.883C72.3633 259.617 71.9492 258.652 71.1211 257.988C70.6758 257.621 70.0078 257.316 69.1172 257.074L69.1172 253.5C71 253.813 72.5313 254.613 73.7109 255.902C74.8906 257.184 75.4805 258.828 75.4805 260.836C75.4805 263.32 74.6836 265.273 73.0898 266.695C71.4883 268.117 69.293 268.828 66.5039 268.828ZM61.8984 243.961C61.8984 243.172 62.0352 242.457 62.3086 241.816C62.582 241.168 63 240.637 63.5625 240.223C64.0391 239.871 64.5313 239.656 65.0391 239.578C65.5391 239.5 66.3594 239.461 67.5 239.461L75 239.461L75 242.871L67.2305 242.871C66.543 242.871 65.9883 242.988 65.5664 243.223C64.9727 243.527 64.6758 244.105 64.6758 244.957C64.6758 245.84 64.9727 246.512 65.5664 246.973C66.1523 247.426 66.9922 247.652 68.0859 247.652L75 247.652L75 250.98L57.7852 250.98L57.7852 247.652L63.8906 247.652C63.1484 247.168 62.6328 246.609 62.3438 245.977C62.0469 245.336 61.8984 244.664 61.8984 243.961ZM68.7891 229.289C68.9219 229.5 69.0313 229.715 69.1172 229.934C69.1953 230.145 69.2695 230.438 69.3398 230.813L69.4805 231.563C69.6055 232.266 69.7578 232.77 69.9375 233.074C70.2422 233.59 70.7148 233.848 71.3555 233.848C71.9258 233.848 72.3398 233.691 72.5977 233.379C72.8477 233.059 72.9727 232.672 72.9727 232.219C72.9727 231.5 72.7617 230.84 72.3398 230.238C71.918 229.629 71.1484 229.313 70.0313 229.289L68.7891 229.289ZM67.2305 231.316C67.1523 230.699 67.0547 230.258 66.9375 229.992C66.7344 229.516 66.418 229.277 65.9883 229.277C65.4648 229.277 65.1055 229.461 64.9102 229.828C64.707 230.188 64.6055 230.719 64.6055 231.422C64.6055 232.211 64.8008 232.77 65.1914 233.098C65.4805 233.332 65.8711 233.488 66.3633 233.566L66.3633 236.789C65.2461 236.719 64.3281 236.406 63.6094 235.852C62.4844 234.969 61.9219 233.453 61.9219 231.305C61.9219 229.906 62.1992 228.664 62.7539 227.578C63.3086 226.492 64.3555 225.949 65.8945 225.949L71.7539 225.949C72.1602 225.949 72.6523 225.941 73.2305 225.926C73.668 225.902 73.9648 225.836 74.1211 225.727C74.2773 225.617 74.4063 225.453 74.5078 225.234L75 225.234L75 228.867C74.7422 228.969 74.5 229.039 74.2734 229.078C74.0469 229.117 73.7891 229.148 73.5 229.172C74 229.633 74.4258 230.164 74.7773 230.766C75.1914 231.484 75.3984 232.297 75.3984 233.203C75.3984 234.359 75.0703 235.316 74.4141 236.074C73.75 236.824 72.8125 237.199 71.6016 237.199C70.0313 237.199 68.8945 236.594 68.1914 235.383C67.8086 234.719 67.5352 233.742 67.3711 232.453L67.2305 231.316ZM61.9219 216.035C61.9219 215.973 61.9258 215.922 61.9336 215.883C61.9336 215.836 61.9375 215.738 61.9453 215.59L65.3672 215.59C65.3438 215.801 65.3281 215.988 65.3203 216.152C65.3125 216.316 65.3086 216.449 65.3086 216.551C65.3086 217.895 65.7461 218.797 66.6211 219.258C67.1133 219.516 67.8711 219.645 68.8945 219.645L75 219.645L75 223.008L62.2266 223.008L62.2266 219.82L64.4531 219.82C63.6016 219.305 63.0195 218.855 62.707 218.473C62.1836 217.848 61.9219 217.035 61.9219 216.035ZM75 210.211L75 213.551L57.7266 213.551L57.7266 210.211L75 210.211ZM64.6406 201.902C64.6406 202.676 64.8828 203.277 65.3672 203.707C65.8516 204.129 66.5078 204.395 67.3359 204.504L67.3359 199.313C66.4531 199.367 65.7852 199.637 65.332 200.121C64.8711 200.598 64.6406 201.191 64.6406 201.902ZM61.8867 201.902C61.8867 200.84 62.0859 199.883 62.4844 199.031C62.8828 198.18 63.5117 197.477 64.3711 196.922C65.1289 196.422 66.0078 196.098 67.0078 195.949C67.5938 195.863 68.4375 195.828 69.5391 195.844L69.5391 204.586C70.8203 204.539 71.7188 204.137 72.2344 203.379C72.5547 202.918 72.7148 202.363 72.7148 201.715C72.7148 201.027 72.5195 200.469 72.1289 200.039C71.918 199.805 71.625 199.598 71.25 199.418L71.25 196.008C72.0078 196.094 72.7773 196.488 73.5586 197.191C74.8008 198.285 75.4219 199.816 75.4219 201.785C75.4219 203.41 74.8984 204.844 73.8516 206.086C72.8047 207.328 71.1016 207.949 68.7422 207.949C66.5313 207.949 64.8359 207.391 63.6563 206.273C62.4766 205.148 61.8867 203.691 61.8867 201.902ZM61.9453 179.309C61.9453 178.746 62.0547 178.191 62.2734 177.645C62.4922 177.098 62.875 176.602 63.4219 176.156C63.8672 175.797 64.4141 175.555 65.0625 175.43C65.4922 175.352 66.1211 175.313 66.9492 175.313L75 175.336L75 178.758L66.8672 178.758C66.3828 178.758 65.9844 178.836 65.6719 178.992C65.0781 179.289 64.7813 179.836 64.7813 180.633C64.7813 181.555 65.1641 182.191 65.9297 182.543C66.3359 182.723 66.8242 182.813 67.3945 182.813L75 182.813L75 186.176L67.3945 186.176C66.6367 186.176 66.0859 186.254 65.7422 186.41C65.125 186.691 64.8164 187.242 64.8164 188.063C64.8164 189.016 65.125 189.656 65.7422 189.984C66.0938 190.164 66.6172 190.254 67.3125 190.254L75 190.254L75 193.641L62.25 193.641L62.25 190.395L64.1133 190.395C63.4492 189.98 62.9766 189.59 62.6953 189.223C62.1953 188.574 61.9453 187.734 61.9453 186.703C61.9453 185.727 62.1602 184.938 62.5898 184.336C62.9883 183.852 63.5 183.484 64.125 183.234C63.375 182.797 62.8242 182.254 62.4727 181.605C62.1211 180.918 61.9453 180.152 61.9453 179.309ZM72.6445 166.5C72.6445 165.523 72.2969 164.773 71.6016 164.25C70.9063 163.727 69.918 163.465 68.6367 163.465C67.3555 163.465 66.3711 163.727 65.6836 164.25C64.9883 164.773 64.6406 165.523 64.6406 166.5C64.6406 167.477 64.9883 168.23 65.6836 168.762C66.3711 169.285 67.3555 169.547 68.6367 169.547C69.918 169.547 70.9063 169.285 71.6016 168.762C72.2969 168.23 72.6445 167.477 72.6445 166.5ZM68.6367 159.961C70.5117 159.961 72.1172 160.5 73.4531 161.578C74.7813 162.656 75.4453 164.293 75.4453 166.488C75.4453 168.684 74.7813 170.32 73.4531 171.398C72.1172 172.477 70.5117 173.016 68.6367 173.016C66.793 173.016 65.1953 172.477 63.8438 171.398C62.4922 170.32 61.8164 168.684 61.8164 166.488C61.8164 164.293 62.4922 162.656 63.8438 161.578C65.1953 160.5 66.793 159.961 68.6367 159.961ZM70.9219 154.957C71.5156 154.887 71.9375 154.734 72.1875 154.5C72.6328 154.086 72.8555 153.32 72.8555 152.203C72.8555 151.547 72.7578 151.027 72.5625 150.645C72.3672 150.254 72.0742 150.059 71.6836 150.059C71.3086 150.059 71.0234 150.215 70.8281 150.527C70.6328 150.84 70.2969 152 69.8203 154.008C69.4609 155.453 69.0117 156.473 68.4727 157.066C67.9414 157.66 67.1758 157.957 66.1758 157.957C64.9961 157.957 63.9844 157.496 63.1406 156.574C62.2891 155.645 61.8633 154.34 61.8633 152.66C61.8633 151.066 62.1836 149.77 62.8242 148.77C63.457 147.762 64.5547 147.184 66.1172 147.035L66.1172 150.375C65.6875 150.422 65.3477 150.543 65.0977 150.738C64.6445 151.105 64.418 151.73 64.418 152.613C64.418 153.34 64.5313 153.859 64.7578 154.172C64.9844 154.477 65.25 154.629 65.5547 154.629C65.9375 154.629 66.2148 154.465 66.3867 154.137C66.5664 153.809 66.875 152.648 67.3125 150.656C67.625 149.328 68.0977 148.332 68.7305 147.668C69.3711 147.012 70.1719 146.684 71.1328 146.684C72.3984 146.684 73.4336 147.156 74.2383 148.102C75.0352 149.039 75.4336 150.492 75.4336 152.461C75.4336 154.469 75.0117 155.953 74.168 156.914C73.3164 157.867 72.2344 158.344 70.9219 158.344L70.9219 154.957ZM62.2266 134.191L69.9258 134.191C70.6523 134.191 71.1992 134.105 71.5664 133.934C72.2148 133.629 72.5391 133.031 72.5391 132.141C72.5391 131 72.0781 130.219 71.1563 129.797C70.6563 129.578 69.9961 129.469 69.1758 129.469L62.2266 129.469L62.2266 126.082L75 126.082L75 129.328L73.1953 129.328C73.2344 129.359 73.3516 129.438 73.5469 129.563C73.7422 129.688 73.9141 129.836 74.0625 130.008C74.5313 130.531 74.8516 131.039 75.0234 131.531C75.1953 132.016 75.2813 132.586 75.2813 133.242C75.2813 135.133 74.6016 136.406 73.2422 137.063C72.4922 137.43 71.3867 137.613 69.9258 137.613L62.2266 137.613L62.2266 134.191ZM61.9219 115.77C61.9219 114.449 62.2695 113.371 62.9648 112.535C63.6523 111.691 64.7969 111.27 66.3984 111.27L75 111.27L75 114.691L67.2305 114.691C66.5586 114.691 66.043 114.781 65.6836 114.961C65.0273 115.289 64.6992 115.914 64.6992 116.836C64.6992 117.969 65.1797 118.746 66.1406 119.168C66.6484 119.387 67.2969 119.496 68.0859 119.496L75 119.496L75 122.824L62.25 122.824L62.25 119.602L64.1133 119.602C63.457 119.172 62.9844 118.766 62.6953 118.383C62.1797 117.695 61.9219 116.824 61.9219 115.77ZM68.6133 92.6953C67.6289 92.6953 66.7578 92.9219 66 93.375C65.2422 93.8203 64.8633 94.5469 64.8633 95.5547C64.8633 96.7656 65.4375 97.5977 66.5859 98.0508C67.1953 98.2852 67.9688 98.4023 68.9063 98.4023C70.3906 98.4023 71.4336 98.0078 72.0352 97.2188C72.3867 96.75 72.5625 96.1953 72.5625 95.5547C72.5625 94.625 72.2031 93.918 71.4844 93.4336C70.7656 92.9414 69.8086 92.6953 68.6133 92.6953ZM61.9453 94.5938C61.9453 93.1016 62.4961 91.8398 63.5977 90.8086C64.6992 89.7695 66.3164 89.25 68.4492 89.25C70.6992 89.25 72.4141 89.7578 73.5938 90.7734C74.7734 91.7813 75.3633 93.082 75.3633 94.6758C75.3633 95.6914 75.1094 96.5352 74.6016 97.207C74.3203 97.5742 73.9102 97.9336 73.3711 98.2852L80.0273 98.2852L80.0273 101.59L62.2266 101.59L62.2266 98.3906L64.1133 98.3906C63.5586 98.0313 63.1211 97.6484 62.8008 97.2422C62.2305 96.5 61.9453 95.6172 61.9453 94.5938ZM72.6445 81.0938C72.6445 80.1172 72.2969 79.3672 71.6016 78.8438C70.9063 78.3203 69.918 78.0586 68.6367 78.0586C67.3555 78.0586 66.3711 78.3203 65.6836 78.8438C64.9883 79.3672 64.6406 80.1172 64.6406 81.0938C64.6406 82.0703 64.9883 82.8242 65.6836 83.3555C66.3711 83.8789 67.3555 84.1406 68.6367 84.1406C69.918 84.1406 70.9063 83.8789 71.6016 83.3555C72.2969 82.8242 72.6445 82.0703 72.6445 81.0938ZM68.6367 74.5547C70.5117 74.5547 72.1172 75.0938 73.4531 76.1719C74.7813 77.25 75.4453 78.8867 75.4453 81.082C75.4453 83.2773 74.7813 84.9141 73.4531 85.9922C72.1172 87.0703 70.5117 87.6094 68.6367 87.6094C66.793 87.6094 65.1953 87.0703 63.8438 85.9922C62.4922 84.9141 61.8164 83.2773 61.8164 81.082C61.8164 78.8867 62.4922 77.25 63.8438 76.1719C65.1953 75.0938 66.793 74.5547 68.6367 74.5547ZM66.8086 64.5234C66.332 64.5859 65.9023 64.7461 65.5195 65.0039C65.0039 65.3789 64.7461 65.9609 64.7461 66.75C64.7461 67.875 65.3047 68.6445 66.4219 69.0586C67.0156 69.2773 67.8047 69.3867 68.7891 69.3867C69.7266 69.3867 70.4805 69.2773 71.0508 69.0586C72.1133 68.6602 72.6445 67.9102 72.6445 66.8086C72.6445 66.0273 72.4336 65.4727 72.0117 65.1445C71.5898 64.8164 71.043 64.6172 70.3711 64.5469L70.3711 61.1367C71.3867 61.2148 72.3477 61.582 73.2539 62.2383C74.7148 63.2852 75.4453 64.8359 75.4453 66.8906C75.4453 68.9453 74.8359 70.457 73.6172 71.4258C72.3984 72.3945 70.8164 72.8789 68.8711 72.8789C66.6758 72.8789 64.9688 72.3438 63.75 71.2734C62.5313 70.2031 61.9219 68.7266 61.9219 66.8438C61.9219 65.2422 62.2813 63.9336 63 62.918C63.7188 61.8945 64.9883 61.2891 66.8086 61.1016L66.8086 64.5234ZM72.6445 53.0625C72.6445 52.0859 72.2969 51.3359 71.6016 50.8125C70.9063 50.2891 69.918 50.0273 68.6367 50.0273C67.3555 50.0273 66.3711 50.2891 65.6836 50.8125C64.9883 51.3359 64.6406 52.0859 64.6406 53.0625C64.6406 54.0391 64.9883 54.793 65.6836 55.3242C66.3711 55.8477 67.3555 56.1094 68.6367 56.1094C69.918 56.1094 70.9063 55.8477 71.6016 55.3242C72.2969 54.793 72.6445 54.0391 72.6445 53.0625ZM68.6367 46.5234C70.5117 46.5234 72.1172 47.0625 73.4531 48.1406C74.7813 49.2188 75.4453 50.8555 75.4453 53.0508C75.4453 55.2461 74.7813 56.8828 73.4531 57.9609C72.1172 59.0391 70.5117 59.5781 68.6367 59.5781C66.793 59.5781 65.1953 59.0391 63.8438 57.9609C62.4922 56.8828 61.8164 55.2461 61.8164 53.0508C61.8164 50.8555 62.4922 49.2188 63.8438 48.1406C65.1953 47.0625 66.793 46.5234 68.6367 46.5234ZM71.5078 44.1797L71.5078 40.6289L75 40.6289L75 44.1797L71.5078 44.1797Z" fill="black"/>
<path d="M65.9393 328.119C66.5251 328.705 67.4749 328.705 68.0607 328.119L77.6066 318.574C78.1924 317.988 78.1924 317.038 77.6066 316.452C77.0208 315.866 76.0711 315.866 75.4853 316.452L67 324.938L58.5147 316.452C57.9289 315.866 56.9792 315.866 56.3934 316.452C55.8076 317.038 55.8076 317.988 56.3934 318.574L65.9393 328.119ZM65.5 307L65.5 327.059L68.5 327.059L68.5 307L65.5 307Z" fill="black"/>
<circle cx="67" cy="318" r="21" transform="rotate(-180 67 318)" stroke="black" stroke-width="2"/>
</svg>
