<svg width="133" height="449" viewBox="0 0 133 449" fill="none" xmlns="http://www.w3.org/2000/svg">
<rect width="133" height="449" fill="white"/>
<path d="M66.5039 216.773C63.4883 216.773 61.1641 215.965 59.5313 214.348C58.1094 212.941 57.3984 211.152 57.3984 208.98C57.3984 206.074 58.3516 203.949 60.2578 202.605C61.3281 201.863 62.4023 201.465 63.4805 201.41L63.4805 205.02C62.6523 205.254 62.0273 205.555 61.6055 205.922C60.8555 206.578 60.4805 207.551 60.4805 208.84C60.4805 210.152 61.0117 211.188 62.0742 211.945C63.1289 212.703 64.625 213.082 66.5625 213.082C68.5 213.082 69.9531 212.684 70.9219 211.887C71.8828 211.082 72.3633 210.063 72.3633 208.828C72.3633 207.563 71.9492 206.598 71.1211 205.934C70.6758 205.566 70.0078 205.262 69.1172 205.02L69.1172 201.445C71 201.758 72.5313 202.559 73.7109 203.848C74.8906 205.129 75.4805 206.773 75.4805 208.781C75.4805 211.266 74.6836 213.219 73.0898 214.641C71.4883 216.063 69.293 216.773 66.5039 216.773ZM72.6445 193.219C72.6445 192.242 72.2969 191.492 71.6016 190.969C70.9063 190.445 69.918 190.184 68.6367 190.184C67.3555 190.184 66.3711 190.445 65.6836 190.969C64.9883 191.492 64.6406 192.242 64.6406 193.219C64.6406 194.195 64.9883 194.949 65.6836 195.48C66.3711 196.004 67.3555 196.266 68.6367 196.266C69.918 196.266 70.9063 196.004 71.6016 195.48C72.2969 194.949 72.6445 194.195 72.6445 193.219ZM68.6367 186.68C70.5117 186.68 72.1172 187.219 73.4531 188.297C74.7813 189.375 75.4453 191.012 75.4453 193.207C75.4453 195.402 74.7813 197.039 73.4531 198.117C72.1172 199.195 70.5117 199.734 68.6367 199.734C66.793 199.734 65.1953 199.195 63.8438 198.117C62.4922 197.039 61.8164 195.402 61.8164 193.207C61.8164 191.012 62.4922 189.375 63.8438 188.297C65.1953 187.219 66.793 186.68 68.6367 186.68ZM57 189.211L60.5039 192.773L60.5039 195.188L57 192.938L57 189.211ZM61.9453 170.004C61.9453 169.441 62.0547 168.887 62.2734 168.34C62.4922 167.793 62.875 167.297 63.4219 166.852C63.8672 166.492 64.4141 166.25 65.0625 166.125C65.4922 166.047 66.1211 166.008 66.9492 166.008L75 166.031L75 169.453L66.8672 169.453C66.3828 169.453 65.9844 169.531 65.6719 169.688C65.0781 169.984 64.7813 170.531 64.7813 171.328C64.7813 172.25 65.1641 172.887 65.9297 173.238C66.3359 173.418 66.8242 173.508 67.3945 173.508L75 173.508L75 176.871L67.3945 176.871C66.6367 176.871 66.0859 176.949 65.7422 177.105C65.125 177.387 64.8164 177.938 64.8164 178.758C64.8164 179.711 65.125 180.352 65.7422 180.68C66.0938 180.859 66.6172 180.949 67.3125 180.949L75 180.949L75 184.336L62.25 184.336L62.25 181.09L64.1133 181.09C63.4492 180.676 62.9766 180.285 62.6953 179.918C62.1953 179.27 61.9453 178.43 61.9453 177.398C61.9453 176.422 62.1602 175.633 62.5898 175.031C62.9883 174.547 63.5 174.18 64.125 173.93C63.375 173.492 62.8242 172.949 62.4727 172.301C62.1211 171.613 61.9453 170.848 61.9453 170.004ZM72.6445 157.195C72.6445 156.219 72.2969 155.469 71.6016 154.945C70.9063 154.422 69.918 154.16 68.6367 154.16C67.3555 154.16 66.3711 154.422 65.6836 154.945C64.9883 155.469 64.6406 156.219 64.6406 157.195C64.6406 158.172 64.9883 158.926 65.6836 159.457C66.3711 159.98 67.3555 160.242 68.6367 160.242C69.918 160.242 70.9063 159.98 71.6016 159.457C72.2969 158.926 72.6445 158.172 72.6445 157.195ZM68.6367 150.656C70.5117 150.656 72.1172 151.195 73.4531 152.273C74.7813 153.352 75.4453 154.988 75.4453 157.184C75.4453 159.379 74.7813 161.016 73.4531 162.094C72.1172 163.172 70.5117 163.711 68.6367 163.711C66.793 163.711 65.1953 163.172 63.8438 162.094C62.4922 161.016 61.8164 159.379 61.8164 157.184C61.8164 154.988 62.4922 153.352 63.8438 152.273C65.1953 151.195 66.793 150.656 68.6367 150.656ZM75 138.164L75 141.504L57.7266 141.504L57.7266 138.164L75 138.164ZM72.6445 129.164C72.6445 128.188 72.2969 127.438 71.6016 126.914C70.9063 126.391 69.918 126.129 68.6367 126.129C67.3555 126.129 66.3711 126.391 65.6836 126.914C64.9883 127.438 64.6406 128.188 64.6406 129.164C64.6406 130.141 64.9883 130.895 65.6836 131.426C66.3711 131.949 67.3555 132.211 68.6367 132.211C69.918 132.211 70.9063 131.949 71.6016 131.426C72.2969 130.895 72.6445 130.141 72.6445 129.164ZM68.6367 122.625C70.5117 122.625 72.1172 123.164 73.4531 124.242C74.7813 125.32 75.4453 126.957 75.4453 129.152C75.4453 131.348 74.7813 132.984 73.4531 134.063C72.1172 135.141 70.5117 135.68 68.6367 135.68C66.793 135.68 65.1953 135.141 63.8438 134.063C62.4922 132.984 61.8164 131.348 61.8164 129.152C61.8164 126.957 62.4922 125.32 63.8438 124.242C65.1953 123.164 66.793 122.625 68.6367 122.625ZM68.7891 106.5C68.9219 106.711 69.0313 106.926 69.1172 107.145C69.1953 107.355 69.2695 107.648 69.3398 108.023L69.4805 108.773C69.6055 109.477 69.7578 109.98 69.9375 110.285C70.2422 110.801 70.7148 111.059 71.3555 111.059C71.9258 111.059 72.3398 110.902 72.5977 110.59C72.8477 110.27 72.9727 109.883 72.9727 109.43C72.9727 108.711 72.7617 108.051 72.3398 107.449C71.918 106.84 71.1484 106.523 70.0313 106.5L68.7891 106.5ZM67.2305 108.527C67.1523 107.91 67.0547 107.469 66.9375 107.203C66.7344 106.727 66.418 106.488 65.9883 106.488C65.4648 106.488 65.1055 106.672 64.9102 107.039C64.707 107.398 64.6055 107.93 64.6055 108.633C64.6055 109.422 64.8008 109.98 65.1914 110.309C65.4805 110.543 65.8711 110.699 66.3633 110.777L66.3633 114C65.2461 113.93 64.3281 113.617 63.6094 113.063C62.4844 112.18 61.9219 110.664 61.9219 108.516C61.9219 107.117 62.1992 105.875 62.7539 104.789C63.3086 103.703 64.3555 103.16 65.8945 103.16L71.7539 103.16C72.1602 103.16 72.6523 103.152 73.2305 103.137C73.668 103.113 73.9648 103.047 74.1211 102.938C74.2773 102.828 74.4063 102.664 74.5078 102.445L75 102.445L75 106.078C74.7422 106.18 74.5 106.25 74.2734 106.289C74.0469 106.328 73.7891 106.359 73.5 106.383C74 106.844 74.4258 107.375 74.7773 107.977C75.1914 108.695 75.3984 109.508 75.3984 110.414C75.3984 111.57 75.0703 112.527 74.4141 113.285C73.75 114.035 72.8125 114.41 71.6016 114.41C70.0313 114.41 68.8945 113.805 68.1914 112.594C67.8086 111.93 67.5352 110.953 67.3711 109.664L67.2305 108.527ZM68.6133 91.3828C67.6289 91.3828 66.7578 91.6094 66 92.0625C65.2422 92.5078 64.8633 93.2344 64.8633 94.2422C64.8633 95.4531 65.4375 96.2852 66.5859 96.7383C67.1953 96.9727 67.9688 97.0898 68.9063 97.0898C70.3906 97.0898 71.4336 96.6953 72.0352 95.9063C72.3867 95.4375 72.5625 94.8828 72.5625 94.2422C72.5625 93.3125 72.2031 92.6055 71.4844 92.1211C70.7656 91.6289 69.8086 91.3828 68.6133 91.3828ZM61.9453 93.2813C61.9453 91.7891 62.4961 90.5273 63.5977 89.4961C64.6992 88.457 66.3164 87.9375 68.4492 87.9375C70.6992 87.9375 72.4141 88.4453 73.5938 89.4609C74.7734 90.4688 75.3633 91.7695 75.3633 93.3633C75.3633 94.3789 75.1094 95.2227 74.6016 95.8945C74.3203 96.2617 73.9102 96.6211 73.3711 96.9727L80.0273 96.9727L80.0273 100.277L62.2266 100.277L62.2266 97.0781L64.1133 97.0781C63.5586 96.7188 63.1211 96.3359 62.8008 95.9297C62.2305 95.1875 61.9453 94.3047 61.9453 93.2813ZM75 82.1016L75 85.4414L57.7266 85.4414L57.7266 82.1016L75 82.1016ZM60.7031 75.3984L60.7031 78.7852L57.6211 78.7852L57.6211 75.3984L60.7031 75.3984ZM62.2266 78.7852L62.2266 75.3984L75 75.3984L75 78.7852L62.2266 78.7852ZM66.8086 64.5234C66.332 64.5859 65.9023 64.7461 65.5195 65.0039C65.0039 65.3789 64.7461 65.9609 64.7461 66.75C64.7461 67.875 65.3047 68.6445 66.4219 69.0586C67.0156 69.2773 67.8047 69.3867 68.7891 69.3867C69.7266 69.3867 70.4805 69.2773 71.0508 69.0586C72.1133 68.6602 72.6445 67.9102 72.6445 66.8086C72.6445 66.0273 72.4336 65.4727 72.0117 65.1445C71.5898 64.8164 71.043 64.6172 70.3711 64.5469L70.3711 61.1367C71.3867 61.2148 72.3477 61.582 73.2539 62.2383C74.7148 63.2852 75.4453 64.8359 75.4453 66.8906C75.4453 68.9453 74.8359 70.457 73.6172 71.4258C72.3984 72.3945 70.8164 72.8789 68.8711 72.8789C66.6758 72.8789 64.9688 72.3438 63.75 71.2734C62.5313 70.2031 61.9219 68.7266 61.9219 66.8438C61.9219 65.2422 62.2813 63.9336 63 62.918C63.7188 61.8945 64.9883 61.2891 66.8086 61.1016L66.8086 64.5234ZM72.6445 53.0625C72.6445 52.0859 72.2969 51.3359 71.6016 50.8125C70.9063 50.2891 69.918 50.0273 68.6367 50.0273C67.3555 50.0273 66.3711 50.2891 65.6836 50.8125C64.9883 51.3359 64.6406 52.0859 64.6406 53.0625C64.6406 54.0391 64.9883 54.793 65.6836 55.3242C66.3711 55.8477 67.3555 56.1094 68.6367 56.1094C69.918 56.1094 70.9063 55.8477 71.6016 55.3242C72.2969 54.793 72.6445 54.0391 72.6445 53.0625ZM68.6367 46.5234C70.5117 46.5234 72.1172 47.0625 73.4531 48.1406C74.7813 49.2188 75.4453 50.8555 75.4453 53.0508C75.4453 55.2461 74.7813 56.8828 73.4531 57.9609C72.1172 59.0391 70.5117 59.5781 68.6367 59.5781C66.793 59.5781 65.1953 59.0391 63.8438 57.9609C62.4922 56.8828 61.8164 55.2461 61.8164 53.0508C61.8164 50.8555 62.4922 49.2188 63.8438 48.1406C65.1953 47.0625 66.793 46.5234 68.6367 46.5234ZM71.5078 44.1797L71.5078 40.6289L75 40.6289L75 44.1797L71.5078 44.1797Z" fill="black"/>
<path d="M65.9393 278.119C66.5251 278.705 67.4749 278.705 68.0607 278.119L77.6066 268.574C78.1924 267.988 78.1924 267.038 77.6066 266.452C77.0208 265.866 76.0711 265.866 75.4853 266.452L67 274.938L58.5147 266.452C57.9289 265.866 56.9792 265.866 56.3934 266.452C55.8076 267.038 55.8076 267.988 56.3934 268.574L65.9393 278.119ZM65.5 257L65.5 277.059L68.5 277.059L68.5 257L65.5 257Z" fill="black"/>
<circle cx="67" cy="268" r="21" transform="rotate(-180 67 268)" stroke="black" stroke-width="2"/>
</svg>
