<svg width="133" height="449" viewBox="0 0 133 449" fill="none" xmlns="http://www.w3.org/2000/svg">
<rect width="133" height="449" fill="white"/>
<path d="M72.4219 269.801C72.4219 269.387 72.3711 268.988 72.2695 268.605C72.2148 268.395 72.1172 268.125 71.9766 267.797L70.3125 269.543L68.3672 267.68L70.0313 265.934C69.4688 265.66 68.9766 265.469 68.5547 265.359C67.9219 265.188 67.1836 265.102 66.3398 265.102C64.4023 265.102 62.9063 265.5 61.8516 266.297C60.7891 267.086 60.2578 268.242 60.2578 269.766C60.2578 271.195 60.7656 272.336 61.7813 273.188C62.7969 274.039 64.3164 274.465 66.3398 274.465C68.707 274.465 70.4023 273.855 71.4258 272.637C72.0898 271.848 72.4219 270.902 72.4219 269.801ZM66.082 261.492C67.6211 261.492 68.9102 261.68 69.9492 262.055C70.9414 262.359 71.7656 262.809 72.4219 263.402L74.2852 261.41L76.2539 263.297L74.2852 265.383C74.668 266.016 74.9375 266.563 75.0938 267.023C75.3516 267.797 75.4805 268.723 75.4805 269.801C75.4805 272.051 74.8086 273.91 73.4648 275.379C71.8477 277.16 69.4727 278.051 66.3398 278.051C63.1836 278.051 60.7969 277.137 59.1797 275.309C57.8594 273.816 57.1992 271.961 57.1992 269.742C57.1992 267.508 57.8984 265.633 59.2969 264.117C60.9141 262.367 63.1758 261.492 66.082 261.492ZM62.2266 255.668L69.9258 255.668C70.6523 255.668 71.1992 255.582 71.5664 255.41C72.2148 255.105 72.5391 254.508 72.5391 253.617C72.5391 252.477 72.0781 251.695 71.1563 251.273C70.6563 251.055 69.9961 250.945 69.1758 250.945L62.2266 250.945L62.2266 247.559L75 247.559L75 250.805L73.1953 250.805C73.2344 250.836 73.3516 250.914 73.5469 251.039C73.7422 251.164 73.9141 251.313 74.0625 251.484C74.5313 252.008 74.8516 252.516 75.0234 253.008C75.1953 253.492 75.2813 254.063 75.2813 254.719C75.2813 256.609 74.6016 257.883 73.2422 258.539C72.4922 258.906 71.3867 259.09 69.9258 259.09L62.2266 259.09L62.2266 255.668ZM64.6406 239.285C64.6406 240.059 64.8828 240.66 65.3672 241.09C65.8516 241.512 66.5078 241.777 67.3359 241.887L67.3359 236.695C66.4531 236.75 65.7852 237.02 65.332 237.504C64.8711 237.98 64.6406 238.574 64.6406 239.285ZM61.8867 239.285C61.8867 238.223 62.0859 237.266 62.4844 236.414C62.8828 235.563 63.5117 234.859 64.3711 234.305C65.1289 233.805 66.0078 233.48 67.0078 233.332C67.5938 233.246 68.4375 233.211 69.5391 233.227L69.5391 241.969C70.8203 241.922 71.7188 241.52 72.2344 240.762C72.5547 240.301 72.7148 239.746 72.7148 239.098C72.7148 238.41 72.5195 237.852 72.1289 237.422C71.918 237.188 71.625 236.98 71.25 236.801L71.25 233.391C72.0078 233.477 72.7773 233.871 73.5586 234.574C74.8008 235.668 75.4219 237.199 75.4219 239.168C75.4219 240.793 74.8984 242.227 73.8516 243.469C72.8047 244.711 71.1016 245.332 68.7422 245.332C66.5313 245.332 64.8359 244.773 63.6563 243.656C62.4766 242.531 61.8867 241.074 61.8867 239.285ZM57 235.055L60.5039 238.617L60.5039 241.031L57 238.781L57 235.055ZM57.5508 219.574C57.5508 219.363 57.5586 219.172 57.5742 219C57.582 218.828 57.5977 218.594 57.6211 218.297L60.3398 218.297C60.3164 218.484 60.3008 218.801 60.293 219.246C60.2773 219.684 60.375 219.988 60.5859 220.16C60.7891 220.324 61.0156 220.406 61.2656 220.406C61.5156 220.406 61.875 220.406 62.3438 220.406L62.3438 218.215L64.6992 218.215L64.6992 220.406L75 220.406L75 223.734L64.6992 223.734L64.6992 225.598L62.3438 225.598L62.3438 223.77L61.5234 223.77C60.1563 223.77 59.2148 223.539 58.6992 223.078C57.9336 222.594 57.5508 221.426 57.5508 219.574ZM62.2266 212.965L69.9258 212.965C70.6523 212.965 71.1992 212.879 71.5664 212.707C72.2148 212.402 72.5391 211.805 72.5391 210.914C72.5391 209.773 72.0781 208.992 71.1563 208.57C70.6563 208.352 69.9961 208.242 69.1758 208.242L62.2266 208.242L62.2266 204.855L75 204.855L75 208.102L73.1953 208.102C73.2344 208.133 73.3516 208.211 73.5469 208.336C73.7422 208.461 73.9141 208.609 74.0625 208.781C74.5313 209.305 74.8516 209.813 75.0234 210.305C75.1953 210.789 75.2813 211.359 75.2813 212.016C75.2813 213.906 74.6016 215.18 73.2422 215.836C72.4922 216.203 71.3867 216.387 69.9258 216.387L62.2266 216.387L62.2266 212.965ZM60.7031 198.188L60.7031 201.574L57.6211 201.574L57.6211 198.188L60.7031 198.188ZM62.2266 201.574L62.2266 198.188L75 198.188L75 201.574L62.2266 201.574ZM68.7891 181.219C68.9219 181.43 69.0313 181.645 69.1172 181.863C69.1953 182.074 69.2695 182.367 69.3398 182.742L69.4805 183.492C69.6055 184.195 69.7578 184.699 69.9375 185.004C70.2422 185.52 70.7148 185.777 71.3555 185.777C71.9258 185.777 72.3398 185.621 72.5977 185.309C72.8477 184.988 72.9727 184.602 72.9727 184.148C72.9727 183.43 72.7617 182.77 72.3398 182.168C71.918 181.559 71.1484 181.242 70.0313 181.219L68.7891 181.219ZM67.2305 183.246C67.1523 182.629 67.0547 182.188 66.9375 181.922C66.7344 181.445 66.418 181.207 65.9883 181.207C65.4648 181.207 65.1055 181.391 64.9102 181.758C64.707 182.117 64.6055 182.648 64.6055 183.352C64.6055 184.141 64.8008 184.699 65.1914 185.027C65.4805 185.262 65.8711 185.418 66.3633 185.496L66.3633 188.719C65.2461 188.648 64.3281 188.336 63.6094 187.781C62.4844 186.898 61.9219 185.383 61.9219 183.234C61.9219 181.836 62.1992 180.594 62.7539 179.508C63.3086 178.422 64.3555 177.879 65.8945 177.879L71.7539 177.879C72.1602 177.879 72.6523 177.871 73.2305 177.855C73.668 177.832 73.9648 177.766 74.1211 177.656C74.2773 177.547 74.4063 177.383 74.5078 177.164L75 177.164L75 180.797C74.7422 180.898 74.5 180.969 74.2734 181.008C74.0469 181.047 73.7891 181.078 73.5 181.102C74 181.563 74.4258 182.094 74.7773 182.695C75.1914 183.414 75.3984 184.227 75.3984 185.133C75.3984 186.289 75.0703 187.246 74.4141 188.004C73.75 188.754 72.8125 189.129 71.6016 189.129C70.0313 189.129 68.8945 188.523 68.1914 187.313C67.8086 186.648 67.5352 185.672 67.3711 184.383L67.2305 183.246ZM68.6133 166.102C67.6289 166.102 66.7578 166.328 66 166.781C65.2422 167.227 64.8633 167.953 64.8633 168.961C64.8633 170.172 65.4375 171.004 66.5859 171.457C67.1953 171.691 67.9688 171.809 68.9063 171.809C70.3906 171.809 71.4336 171.414 72.0352 170.625C72.3867 170.156 72.5625 169.602 72.5625 168.961C72.5625 168.031 72.2031 167.324 71.4844 166.84C70.7656 166.348 69.8086 166.102 68.6133 166.102ZM61.9453 168C61.9453 166.508 62.4961 165.246 63.5977 164.215C64.6992 163.176 66.3164 162.656 68.4492 162.656C70.6992 162.656 72.4141 163.164 73.5938 164.18C74.7734 165.188 75.3633 166.488 75.3633 168.082C75.3633 169.098 75.1094 169.941 74.6016 170.613C74.3203 170.98 73.9102 171.34 73.3711 171.691L80.0273 171.691L80.0273 174.996L62.2266 174.996L62.2266 171.797L64.1133 171.797C63.5586 171.438 63.1211 171.055 62.8008 170.648C62.2305 169.906 61.9453 169.023 61.9453 168ZM61.9219 153.293C61.9219 153.23 61.9258 153.18 61.9336 153.141C61.9336 153.094 61.9375 152.996 61.9453 152.848L65.3672 152.848C65.3438 153.059 65.3281 153.246 65.3203 153.41C65.3125 153.574 65.3086 153.707 65.3086 153.809C65.3086 155.152 65.7461 156.055 66.6211 156.516C67.1133 156.773 67.8711 156.902 68.8945 156.902L75 156.902L75 160.266L62.2266 160.266L62.2266 157.078L64.4531 157.078C63.6016 156.563 63.0195 156.113 62.707 155.73C62.1836 155.105 61.9219 154.293 61.9219 153.293ZM64.6406 145.84C64.6406 146.613 64.8828 147.215 65.3672 147.645C65.8516 148.066 66.5078 148.332 67.3359 148.441L67.3359 143.25C66.4531 143.305 65.7852 143.574 65.332 144.059C64.8711 144.535 64.6406 145.129 64.6406 145.84ZM61.8867 145.84C61.8867 144.777 62.0859 143.82 62.4844 142.969C62.8828 142.117 63.5117 141.414 64.3711 140.859C65.1289 140.359 66.0078 140.035 67.0078 139.887C67.5938 139.801 68.4375 139.766 69.5391 139.781L69.5391 148.523C70.8203 148.477 71.7188 148.074 72.2344 147.316C72.5547 146.855 72.7148 146.301 72.7148 145.652C72.7148 144.965 72.5195 144.406 72.1289 143.977C71.918 143.742 71.625 143.535 71.25 143.355L71.25 139.945C72.0078 140.031 72.7773 140.426 73.5586 141.129C74.8008 142.223 75.4219 143.754 75.4219 145.723C75.4219 147.348 74.8984 148.781 73.8516 150.023C72.8047 151.266 71.1016 151.887 68.7422 151.887C66.5313 151.887 64.8359 151.328 63.6563 150.211C62.4766 149.086 61.8867 147.629 61.8867 145.84ZM61.9219 130.441C61.9219 129.121 62.2695 128.043 62.9648 127.207C63.6523 126.363 64.7969 125.941 66.3984 125.941L75 125.941L75 129.363L67.2305 129.363C66.5586 129.363 66.043 129.453 65.6836 129.633C65.0273 129.961 64.6992 130.586 64.6992 131.508C64.6992 132.641 65.1797 133.418 66.1406 133.84C66.6484 134.059 67.2969 134.168 68.0859 134.168L75 134.168L75 137.496L62.25 137.496L62.25 134.273L64.1133 134.273C63.457 133.844 62.9844 133.438 62.6953 133.055C62.1797 132.367 61.9219 131.496 61.9219 130.441ZM61.9219 118.137C61.9219 117.363 62.0938 116.676 62.4375 116.074C62.7734 115.473 63.2422 114.984 63.8438 114.609L57.75 114.609L57.75 111.223L75 111.223L75 114.469L73.2305 114.469C73.9883 114.945 74.5391 115.488 74.8828 116.098C75.2266 116.707 75.3984 117.465 75.3984 118.371C75.3984 119.863 74.7969 121.121 73.5938 122.145C72.3828 123.16 70.832 123.668 68.9414 123.668C66.7617 123.668 65.0469 123.168 63.7969 122.168C62.5469 121.16 61.9219 119.816 61.9219 118.137ZM72.5859 117.41C72.5859 116.465 72.2344 115.746 71.5313 115.254C70.8281 114.762 69.918 114.516 68.8008 114.516C67.2383 114.516 66.1211 114.91 65.4492 115.699C65.043 116.184 64.8398 116.746 64.8398 117.387C64.8398 118.363 65.2109 119.082 65.9531 119.543C66.6875 119.996 67.6016 120.223 68.6953 120.223C69.875 120.223 70.8203 119.992 71.5313 119.531C72.2344 119.063 72.5859 118.355 72.5859 117.41ZM60.7031 104.742L60.7031 108.129L57.6211 108.129L57.6211 104.742L60.7031 104.742ZM62.2266 108.129L62.2266 104.742L75 104.742L75 108.129L62.2266 108.129ZM64.6406 96.457C64.6406 97.2305 64.8828 97.832 65.3672 98.2617C65.8516 98.6836 66.5078 98.9492 67.3359 99.0586L67.3359 93.8672C66.4531 93.9219 65.7852 94.1914 65.332 94.6758C64.8711 95.1523 64.6406 95.7461 64.6406 96.457ZM61.8867 96.457C61.8867 95.3945 62.0859 94.4375 62.4844 93.5859C62.8828 92.7344 63.5117 92.0313 64.3711 91.4766C65.1289 90.9766 66.0078 90.6523 67.0078 90.5039C67.5938 90.418 68.4375 90.3828 69.5391 90.3984L69.5391 99.1406C70.8203 99.0938 71.7188 98.6914 72.2344 97.9336C72.5547 97.4727 72.7148 96.918 72.7148 96.2695C72.7148 95.582 72.5195 95.0234 72.1289 94.5938C71.918 94.3594 71.625 94.1523 71.25 93.9727L71.25 90.5625C72.0078 90.6484 72.7773 91.043 73.5586 91.7461C74.8008 92.8398 75.4219 94.3711 75.4219 96.3398C75.4219 97.9648 74.8984 99.3984 73.8516 100.641C72.8047 101.883 71.1016 102.504 68.7422 102.504C66.5313 102.504 64.8359 101.945 63.6563 100.828C62.4766 99.7031 61.8867 98.2461 61.8867 96.457ZM61.9219 81.0586C61.9219 79.7383 62.2695 78.6602 62.9648 77.8242C63.6523 76.9805 64.7969 76.5586 66.3984 76.5586L75 76.5586L75 79.9805L67.2305 79.9805C66.5586 79.9805 66.043 80.0703 65.6836 80.25C65.0273 80.5781 64.6992 81.2031 64.6992 82.125C64.6992 83.2578 65.1797 84.0352 66.1406 84.457C66.6484 84.6758 67.2969 84.7852 68.0859 84.7852L75 84.7852L75 88.1133L62.25 88.1133L62.25 84.8906L64.1133 84.8906C63.457 84.4609 62.9844 84.0547 62.6953 83.6719C62.1797 82.9844 61.9219 82.1133 61.9219 81.0586ZM61.9219 68.7539C61.9219 67.9805 62.0938 67.293 62.4375 66.6914C62.7734 66.0898 63.2422 65.6016 63.8438 65.2266L57.75 65.2266L57.75 61.8398L75 61.8398L75 65.0859L73.2305 65.0859C73.9883 65.5625 74.5391 66.1055 74.8828 66.7148C75.2266 67.3242 75.3984 68.082 75.3984 68.9883C75.3984 70.4805 74.7969 71.7383 73.5938 72.7617C72.3828 73.7773 70.832 74.2852 68.9414 74.2852C66.7617 74.2852 65.0469 73.7852 63.7969 72.7852C62.5469 71.7773 61.9219 70.4336 61.9219 68.7539ZM72.5859 68.0273C72.5859 67.082 72.2344 66.3633 71.5313 65.8711C70.8281 65.3789 69.918 65.1328 68.8008 65.1328C67.2383 65.1328 66.1211 65.5273 65.4492 66.3164C65.043 66.8008 64.8398 67.3633 64.8398 68.0039C64.8398 68.9805 65.2109 69.6992 65.9531 70.1602C66.6875 70.6133 67.6016 70.8398 68.6953 70.8398C69.875 70.8398 70.8203 70.6094 71.5313 70.1484C72.2344 69.6797 72.5859 68.9727 72.5859 68.0273ZM72.6445 53.0625C72.6445 52.0859 72.2969 51.3359 71.6016 50.8125C70.9063 50.2891 69.918 50.0273 68.6367 50.0273C67.3555 50.0273 66.3711 50.2891 65.6836 50.8125C64.9883 51.3359 64.6406 52.0859 64.6406 53.0625C64.6406 54.0391 64.9883 54.793 65.6836 55.3242C66.3711 55.8477 67.3555 56.1094 68.6367 56.1094C69.918 56.1094 70.9063 55.8477 71.6016 55.3242C72.2969 54.793 72.6445 54.0391 72.6445 53.0625ZM68.6367 46.5234C70.5117 46.5234 72.1172 47.0625 73.4531 48.1406C74.7813 49.2188 75.4453 50.8555 75.4453 53.0508C75.4453 55.2461 74.7813 56.8828 73.4531 57.9609C72.1172 59.0391 70.5117 59.5781 68.6367 59.5781C66.793 59.5781 65.1953 59.0391 63.8438 57.9609C62.4922 56.8828 61.8164 55.2461 61.8164 53.0508C61.8164 50.8555 62.4922 49.2188 63.8438 48.1406C65.1953 47.0625 66.793 46.5234 68.6367 46.5234ZM71.5078 44.1797L71.5078 40.6289L75 40.6289L75 44.1797L71.5078 44.1797Z" fill="black"/>
<path d="M65.9393 338.119C66.5251 338.705 67.4749 338.705 68.0607 338.119L77.6066 328.574C78.1924 327.988 78.1924 327.038 77.6066 326.452C77.0208 325.866 76.0711 325.866 75.4853 326.452L67 334.938L58.5147 326.452C57.9289 325.866 56.9792 325.866 56.3934 326.452C55.8076 327.038 55.8076 327.988 56.3934 328.574L65.9393 338.119ZM65.5 317L65.5 337.059L68.5 337.059L68.5 317L65.5 317Z" fill="black"/>
<circle cx="67" cy="328" r="21" transform="rotate(-180 67 328)" stroke="black" stroke-width="2"/>
</svg>
